<svg width="33" height="34" viewBox="0 0 33 34" fill="none" xmlns="http://www.w3.org/2000/svg">
<path d="M0.676514 29.5V21L4.17651 20.5V5.5C4.17651 5.5 5.17651 0 11.1765 0C18.1577 0 18.6765 5.5 18.6765 5.5V27.5C18.6765 27.5 19.6765 29.875 22.6765 29.5C25.6765 29.125 25.6765 27.5 25.6765 27.5V13.5L22.1765 12.5V4.5H24.6765V1.5H30.6765V4.5H32.6765V12.5L29.1765 13.5V28.5C29.1765 28.5 29.1765 33.5 22.6765 33.5C16.1765 33.5 15.6765 28.5 15.6765 28.5V6.5C15.6765 6.5 15.2076 4 11.1765 4C8.67651 4 8.17651 6.5 8.17651 6.5V20.5L11.1765 21V29.5H8.67651V32.5H3.17651V29.5H0.676514Z" fill="#6F4C9E"/>
</svg>
