<svg width="34" height="33" viewBox="0 0 34 33" fill="none" xmlns="http://www.w3.org/2000/svg">
<path fill-rule="evenodd" clip-rule="evenodd" d="M19.1729 0.710607L32.5495 11.9222C33.154 12.4289 33.6103 13.4341 33.6103 14.2595V15.7808C33.6103 16.7561 32.874 17.5499 31.9687 17.5499H29.6743C29.4116 17.5499 29.1979 17.7802 29.1979 18.0629V28.5603C29.1979 31.0037 27.3529 32.992 25.0852 32.992H9.20124C6.93393 32.992 5.08891 31.0037 5.08891 28.5603V18.0629C5.08891 17.7802 4.8752 17.5499 4.61247 17.5499H2.31808C1.41277 17.5499 0.676514 16.7565 0.676514 15.7808V14.2595C0.676514 13.4341 1.13283 12.4289 1.73735 11.9222L15.114 0.710607C15.6607 0.252774 16.3808 0 17.1434 0C17.9053 0 18.6265 0.252774 19.1729 0.710607ZM13.667 24.3763V31.7363H20.6204V24.3763C20.6204 22.31 19.0608 20.6297 17.1437 20.6297C15.2266 20.6297 13.667 22.31 13.667 24.3763Z" fill="#6F4C9E"/>
</svg>
