<svg width="672" height="633" viewBox="0 0 672 633" fill="none" xmlns="http://www.w3.org/2000/svg">
<path d="M85.3845 12.0002C85.3845 12.0002 554.109 11.9998 592.466 12.0002C630.823 12.0005 660.582 48.2693 659.975 87.9473C659.377 126.958 624.686 161.593 592.466 161.593C560.246 161.593 122.975 161.593 85.3845 161.593C47.7944 161.593 12.358 195.678 11.7388 236.773C11.1099 278.514 43.958 314.254 85.3845 314.254C126.811 314.254 548.74 314.254 592.466 314.254C636.192 314.254 662.24 353.286 659.975 394.037C657.846 432.336 619.315 465.382 592.466 465.382C565.617 465.382 130.647 465.382 85.3845 465.382C40.1219 465.382 13.5488 498.949 11.7388 539.794C9.84215 582.597 51.6285 621.112 85.3845 621.112C119.141 621.112 578.657 621.112 578.657 621.112" stroke="#3AC0C1" stroke-width="23.0143" stroke-linecap="round"/>
</svg>
