<svg width="37" height="37" viewBox="0 0 37 37" fill="none" xmlns="http://www.w3.org/2000/svg">
<path fill-rule="evenodd" clip-rule="evenodd" d="M18.9317 0.692836C9.09703 0.454431 0.931181 8.23375 0.692775 18.0684C0.45437 27.9031 8.23369 36.069 18.0684 36.3074C18.7015 36.3227 19.2741 36.1451 19.7525 35.7833C20.2167 35.4322 20.5383 34.9492 20.7632 34.4325C21.2041 33.4194 21.3526 32.0907 21.3601 30.7206C21.3871 25.7674 25.7323 21.4657 30.6361 21.6515C31.9852 21.7026 33.2866 21.6304 34.2895 21.2996C34.797 21.1322 35.2908 20.8786 35.669 20.483C36.0663 20.0676 36.2926 19.539 36.3073 18.9318C36.5457 9.09709 28.7664 0.931242 18.9317 0.692836ZM12.6689 24.8802C11.641 25.0059 10.9096 25.9411 11.0353 26.9689C11.161 27.9968 12.0962 28.7282 13.1241 28.6025C14.152 28.4767 14.8833 27.5416 14.7576 26.5137C14.6319 25.4858 13.6967 24.7545 12.6689 24.8802ZM6.40266 19.9796C6.27696 18.9517 7.00831 18.0166 8.03619 17.8909C9.06406 17.7652 9.99922 18.4965 10.1249 19.5244C10.2506 20.5523 9.51928 21.4874 8.4914 21.6131C7.46353 21.7388 6.52837 21.0075 6.40266 19.9796ZM10.848 9.99113C9.82012 10.1168 9.08877 11.052 9.21447 12.0799C9.34018 13.1078 10.2753 13.8391 11.3032 13.7134C12.3311 13.5877 13.0624 12.6525 12.9367 11.6247C12.811 10.5968 11.8759 9.86543 10.848 9.99113ZM25.4324 13.4022C25.3067 12.3743 26.0381 11.4391 27.0659 11.3134C28.0938 11.1877 29.029 11.9191 29.1547 12.947C29.2804 13.9748 28.549 14.91 27.5212 15.0357C26.4933 15.1614 25.5581 14.4301 25.4324 13.4022ZM18.4861 16.3975C17.4583 16.5232 16.7269 17.4584 16.8526 18.4863C16.9783 19.5142 17.9135 20.2455 18.9413 20.1198C19.9692 19.9941 20.7006 19.0589 20.5749 18.0311C20.4492 17.0032 19.514 16.2718 18.4861 16.3975ZM17.362 9.19448C17.2363 8.1666 17.9676 7.23144 18.9955 7.10573C20.0234 6.98003 20.9585 7.71138 21.0842 8.73926C21.21 9.76713 20.4786 10.7023 19.4507 10.828C18.4228 10.9537 17.4877 10.2224 17.362 9.19448Z" fill="#6F4C9E"/>
</svg>
