<svg width="23" height="36" viewBox="0 0 23 36" fill="none" xmlns="http://www.w3.org/2000/svg">
<path d="M5.87719 27.7713H16.4669C17.7612 27.7713 18.8139 26.6405 18.8139 25.2517V7.2558C18.8139 5.86621 17.7612 4.73584 16.4669 4.73584H5.87719C4.58252 4.73584 3.52974 5.86621 3.52974 7.2558V25.2517C3.52974 26.6405 4.58252 27.7713 5.87719 27.7713Z" fill="#6F4C9E"/>
<path d="M11.1718 32.45C11.9515 32.45 12.5835 31.7716 12.5835 30.9347C12.5835 30.0978 11.9515 29.4194 11.1718 29.4194C10.3921 29.4194 9.76002 30.0978 9.76002 30.9347C9.76002 31.7716 10.3921 32.45 11.1718 32.45Z" fill="#6F4C9E"/>
<path fill-rule="evenodd" clip-rule="evenodd" d="M18.2318 35.3485H4.11233C1.84466 35.3485 0 33.3682 0 30.9343V4.41386C0 1.9803 1.84466 0 4.11233 0H18.2318C20.4991 0 22.3437 1.9803 22.3437 4.41386V30.9347C22.3437 33.3682 20.4991 35.3485 18.2318 35.3485ZM4.11221 1.2501C2.48675 1.2501 1.16464 2.66875 1.16464 4.41379V30.9342C1.16464 32.6789 2.48675 34.0979 4.11221 34.0979H18.2317C19.8571 34.0979 21.1789 32.6785 21.1789 30.9342V4.41379C21.1789 2.66836 19.8568 1.2501 18.2317 1.2501H4.11221Z" fill="#6F4C9E"/>
</svg>
