<svg width="27" height="39" viewBox="0 0 27 39" fill="none" xmlns="http://www.w3.org/2000/svg">
<path d="M0.676514 11.7093V23.4186C0.676521 27.1163 8.68814 32.0465 8.68814 32.0465V38.2093H18.5486V32.0465C18.5486 32.0465 26.5603 27.1163 26.5602 23.4186V11.7093C26.5602 10.4767 22.2463 9.24419 22.2463 9.24419V2.46512C22.2463 2.46512 21.6008 0 20.3974 0C19.1941 0 18.5486 2.46512 18.5486 2.46512V9.86047H8.68814V2.46512C8.68814 2.46512 8.04267 0 6.83931 0C5.63595 0 4.99047 2.46512 4.99047 2.46512V9.24419C4.99047 9.24419 0.676514 9.86047 0.676514 11.7093Z" fill="#6F4C9E"/>
</svg>
