<svg width="1054" height="2309" viewBox="0 0 1054 2309" fill="none" xmlns="http://www.w3.org/2000/svg">
<path d="M175.023 890.605L-29 873.044L-5.25726 938.943L129.203 948.955L174.53 1074.76L242.719 1078.5L175.023 890.605Z" fill="white" fill-opacity="0.21"/>
<path d="M-165.327 1067.92L38.6957 1085.51L14.9609 1019.61L-119.499 1009.58L-164.811 883.765L-233 880.019L-165.327 1067.92Z" fill="white" fill-opacity="0.21"/>
<path d="M648.334 1312.87L444.311 1295.31L468.053 1361.21L602.514 1371.22L647.841 1497.03L716.03 1500.77L648.334 1312.87Z" fill="white" fill-opacity="0.21"/>
<path d="M920.75 1518.69L716.727 1501.13L740.47 1567.03L874.93 1577.04L920.257 1702.85L988.447 1706.59L920.75 1518.69Z" fill="white" fill-opacity="0.21"/>
<path d="M378.721 1479.57L582.743 1497.16L559.009 1431.26L424.549 1421.23L379.237 1295.41L311.048 1291.66L378.721 1479.57Z" fill="white" fill-opacity="0.21"/>
<path d="M106.328 1273.71L310.35 1291.3L286.616 1225.4L152.156 1215.37L106.844 1089.55L38.6546 1085.81L106.328 1273.71Z" fill="white" fill-opacity="0.21"/>
<path d="M270.518 1349.1L66.4954 1331.54L90.2382 1397.44L224.698 1407.45L270.025 1533.26L338.215 1537L270.518 1349.1Z" fill="white" fill-opacity="0.21"/>
<path d="M542.238 1554.56L338.215 1537L361.957 1602.9L496.418 1612.91L541.745 1738.72L609.934 1742.46L542.238 1554.56Z" fill="white" fill-opacity="0.21"/>
<path d="M814.654 1760.38L610.631 1742.82L634.374 1808.72L768.834 1818.73L814.161 1944.54L882.35 1948.28L814.654 1760.38Z" fill="white" fill-opacity="0.21"/>
<path d="M544.321 1926.75L748.343 1944.34L724.608 1878.44L590.148 1868.41L544.836 1742.6L476.647 1738.85L544.321 1926.75Z" fill="white" fill-opacity="0.21"/>
<path d="M0.231933 1515.4L204.254 1532.99L180.519 1467.09L46.0595 1457.06L0.747689 1331.24L-67.4416 1327.5L0.231933 1515.4Z" fill="white" fill-opacity="0.21"/>
<path d="M272.69 1720.87L476.712 1738.46L452.977 1672.55L318.517 1662.52L273.206 1536.71L205.016 1532.96L272.69 1720.87Z" fill="white" fill-opacity="0.21"/>
<path d="M272.69 1720.87L476.712 1738.46L452.977 1672.55L318.517 1662.52L273.206 1536.71L205.016 1532.96L272.69 1720.87Z" fill="white" fill-opacity="0.21"/>
<path d="M272.69 1720.87L476.712 1738.46L452.977 1672.55L318.517 1662.52L273.206 1536.71L205.016 1532.96L272.69 1720.87Z" fill="white" fill-opacity="0.21"/>
</svg>
